<?xml version="1.0" encoding="UTF-8" standalone="no"?>
<!DOCTYPE svg PUBLIC "-//W3C//DTD SVG 1.0//EN"
"http://www.w3.org/TR/2001/REC-SVG-20010904/DTD/svg10.dtd">
<!-- Created with Inkscape (http://www.inkscape.org/) -->
<svg
   xmlns="http://www.w3.org/2000/svg"
   xmlns:xlink="http://www.w3.org/1999/xlink"
   version="1.0"
   x="0.0000000"
   y="0.0000000"
   width="111.60000"
   height="96.112503"
   id="svg968">
  <defs
     id="defs970" />
  <g
     transform="translate(14.09647,16.85030)"
     style="fill:#ffffff;stroke:#3b80ae;stroke-width:2.4588001;"
     id="g862">
    <g
       id="g864">
      <path
         d="M 85.277000,40.796000 C 87.335000,48.680000 82.610000,56.738000 74.726000,58.795000 L 27.143000,71.210000 C 19.259000,73.267000 11.200000,68.543000 9.1430000,60.658000 L 1.6950000,32.108000 C -0.36200000,24.224000 4.3620000,16.166000 12.246000,14.109000 L 59.830000,1.6950000 C 67.714000,-0.36200000 75.772000,4.3620000 77.829000,12.246000 L 85.278000,40.796000 L 85.277000,40.796000 z "
         style="stroke:#bababa;"
         id="path866" />
      <path
         d="M 80.444000,39.778000 C 82.193000,47.632000 78.628000,53.399000 70.940000,55.225000 L 28.704000,66.245000 C 21.135000,68.641000 14.615000,65.064000 12.866000,57.409000 L 6.5300000,33.127000 C 4.7810000,24.982000 7.2390000,20.238000 16.033000,17.680000 L 58.270000,6.6610000 C 66.414000,4.8350000 72.359000,8.0240000 74.108000,15.496000 L 80.444000,39.778000 L 80.444000,39.778000 z "
         style="fill:#3b80ae;stroke:none;"
         id="path868" />
    </g>
    <path
       d="M 45.542000,51.793000 L 24.104000,31.102000 L 62.204000,26.709000 L 45.542000,51.793000 z "
       style="opacity:0.49999997;fill:none;stroke:#ffffff;"
       id="path871" />
    <path
       d="M 72.325000,28.769000 C 72.730000,30.319000 71.800000,31.905000 70.250000,32.310000 L 57.919000,35.527000 C 56.368000,35.931000 54.782000,35.002000 54.377000,33.451000 L 52.082000,24.650000 C 51.677000,23.099000 52.606000,21.513000 54.158000,21.108000 L 66.488000,17.891000 C 68.039000,17.486000 69.625000,18.416000 70.030000,19.967000 L 72.325000,28.768000 L 72.325000,28.769000 z "
       id="path873" />
    <path
       d="M 36.510000,33.625000 C 37.006000,35.525000 35.865000,37.469000 33.965000,37.965000 L 18.853000,41.908000 C 16.952000,42.404000 15.008000,41.264000 14.513000,39.364000 L 11.699000,28.578000 C 11.203000,26.677000 12.343000,24.734000 14.243000,24.238000 L 29.356000,20.296000 C 31.257000,19.800000 33.201000,20.939000 33.696000,22.840000 L 36.510000,33.626000 L 36.510000,33.625000 z "
       id="path875" />
    <path
       d="M 52.493000,53.208000 C 52.771000,54.273000 52.133000,55.362000 51.068000,55.640000 L 42.600000,57.848000 C 41.536000,58.125000 40.447000,57.488000 40.169000,56.422000 L 38.592000,50.379000 C 38.315000,49.315000 38.952000,48.226000 40.017000,47.947000 L 48.485000,45.738000 C 49.549000,45.461000 50.639000,46.099000 50.916000,47.164000 L 52.493000,53.207000 L 52.493000,53.208000 z "
       id="path877" />
  </g>
</svg>
