<?xml version="1.0" encoding="UTF-8" standalone="no"?>
<!-- Created with Inkscape (http://www.inkscape.org/) -->

<svg
   xmlns:dc="http://purl.org/dc/elements/1.1/"
   xmlns:cc="http://creativecommons.org/ns#"
   xmlns:rdf="http://www.w3.org/1999/02/22-rdf-syntax-ns#"
   xmlns:svg="http://www.w3.org/2000/svg"
   xmlns="http://www.w3.org/2000/svg"
   xmlns:sodipodi="http://sodipodi.sourceforge.net/DTD/sodipodi-0.dtd"
   xmlns:inkscape="http://www.inkscape.org/namespaces/inkscape"
   width="130.14104mm"
   height="43.328835mm"
   viewBox="0 0 130.14104 43.328835"
   version="1.1"
   id="svg8"
   inkscape:version="0.92.1 r15371"
   sodipodi:docname="pycairo.svg">
  <defs
     id="defs2">
    <inkscape:path-effect
       effect="spiro"
       id="path-effect4584"
       is_visible="true" />
    <inkscape:path-effect
       effect="spiro"
       id="path-effect4580"
       is_visible="true" />
    <inkscape:path-effect
       effect="spiro"
       id="path-effect4576"
       is_visible="true" />
    <inkscape:path-effect
       effect="spiro"
       id="path-effect4556"
       is_visible="true" />
  </defs>
  <sodipodi:namedview
     id="base"
     pagecolor="#ffffff"
     bordercolor="#666666"
     borderopacity="1.0"
     inkscape:pageopacity="0.0"
     inkscape:pageshadow="2"
     inkscape:zoom="0.7"
     inkscape:cx="221.2435"
     inkscape:cy="117.01492"
     inkscape:document-units="mm"
     inkscape:current-layer="layer1"
     showgrid="false"
     inkscape:window-width="1366"
     inkscape:window-height="674"
     inkscape:window-x="0"
     inkscape:window-y="26"
     inkscape:window-maximized="1"
     fit-margin-top="0"
     fit-margin-left="0"
     fit-margin-right="0"
     fit-margin-bottom="0"
     showguides="false" />
  <metadata
     id="metadata5">
    <rdf:RDF>
      <cc:Work
         rdf:about="">
        <dc:format>image/svg+xml</dc:format>
        <dc:type
           rdf:resource="http://purl.org/dc/dcmitype/StillImage" />
        <dc:title></dc:title>
      </cc:Work>
    </rdf:RDF>
  </metadata>
  <g
     inkscape:label="Layer 1"
     inkscape:groupmode="layer"
     id="layer1"
     transform="translate(-25.591643,-149.35281)">
    <path
       style="fill:#000000;stroke-width:0.23586629"
       d="m 31.897251,192.6216 c -4.727277,-0.0706 -4.824063,-0.10943 -3.147613,-1.26265 1.824468,-1.25505 1.945698,-3.02256 0.434748,-6.33871 -1.092505,-2.39777 -2.576693,-6.47276 -2.791349,-7.66389 -0.117067,-0.6496 -0.334744,-1.7118 -0.483726,-2.36044 -0.523235,-2.27795 -0.278332,-4.59102 0.808513,-7.63622 0.347715,-0.97425 0.340976,-1.09296 -0.120517,-2.12279 -1.073036,-2.39448 -1.130874,-2.69896 -0.886712,-4.6678 0.359429,-2.8982 2.081005,-5.20061 5.139089,-6.87293 1.186511,-0.64885 1.186511,-0.64885 0.406784,-1.93959 -1.589238,-2.63079 -1.96655,-2.45493 5.063278,-2.35999 4.093946,0.0553 4.047608,0.0234 2.975,2.04344 -0.944889,1.77944 -0.997173,1.97412 -0.530207,1.97412 1.452336,0 2.003367,1.88003 0.765143,2.6106 -0.853505,0.50358 -0.602451,2.08879 0.539121,3.40399 1.122183,1.29289 2.982176,4.78357 3.64472,6.84012 1.06841,3.31639 0.370626,10.9459 -1.423613,15.56574 -2.820848,7.26314 -2.996314,8.173 -1.842502,9.55403 0.45404,0.54344 0.825539,1.05766 0.825557,1.14267 2.7e-5,0.16673 -2.589005,0.19166 -9.375714,0.0903 z m 7.78307,-1.05283 c -0.291597,-0.31039 -0.530179,-0.79931 -0.530179,-1.08648 0,-1.02933 -7.963494,-0.64832 -9.083724,0.4346 -1.016562,0.98271 -0.874802,1.00954 6.016948,1.13882 4.127135,0.0774 4.127135,0.0774 3.596955,-0.48694 z m -0.530179,-2.41151 c 0,-0.36585 1.515834,-5.04391 1.951956,-6.02396 0.998876,-2.24471 1.165811,-2.72088 1.469827,-4.19273 0.375002,-1.81552 0.53642,-2.65927 0.732096,-3.82672 0.07613,-0.45405 0.187207,-0.90513 0.246891,-1.00243 0.134468,-0.21917 0.273509,-0.2133 -4.282839,-0.18112 -2.07562,0.0146 -4.994466,-0.0861 -6.486321,-0.22404 -7.120758,-0.6581 -6.746111,-0.83782 -5.884245,2.82279 0.259621,1.10267 0.518832,2.20455 0.576037,2.44861 0.05723,0.24406 0.531972,1.4415 1.055038,2.66098 0.523074,1.21947 0.951039,2.30679 0.951039,2.41626 0,0.10947 0.25199,0.76947 0.559973,1.46669 0.307982,0.6972 0.635613,1.81944 0.728075,2.49385 0.168095,1.22621 0.168095,1.22621 1.267991,1.32076 2.31521,0.19902 7.114482,0.0784 7.114482,-0.17894 z m -3.483232,-2.0732 c -0.244493,-0.55823 -0.567621,-2.20436 -0.729217,-3.71489 -0.454405,-4.24761 -0.297,-3.9208 -1.972852,-4.09596 -1.418782,-0.14829 -2.305885,-0.62104 -2.305885,-1.22885 0,-0.16417 -0.307413,-0.36602 -0.683138,-0.44854 -2.432473,-0.53426 -1.162155,-2.75517 1.440614,-2.51865 0.258408,0.0234 0.495101,0.3762 0.657721,0.98015 0.19639,0.72934 0.372436,0.94756 0.775662,0.96151 1.156968,0.04 3.1175,0.61868 3.448857,1.01795 0.220994,0.26628 0.697534,6.46234 0.723048,9.40109 0.0093,1.07319 -0.825272,0.85524 -1.35481,-0.35381 z m 0.813959,0.0147 c -0.07533,-0.18816 -0.131179,-0.13227 -0.1425,0.1425 -0.01025,0.24864 0.04555,0.38795 0.123878,0.30958 0.07836,-0.0784 0.08674,-0.28182 0.01863,-0.45208 z m -0.297802,-4.43724 c -0.168299,-2.01075 -0.312529,-3.82906 -0.320525,-4.04069 -0.01489,-0.39451 -1.472314,-0.89697 -3.011318,-1.03817 -1.070977,-0.0983 -1.248806,-0.26707 -1.248806,-1.18551 0,-1.07785 -0.752261,-1.12943 -2.341437,-0.16054 -0.251856,0.15355 0.873242,0.74991 1.427455,0.75663 0.490171,0.006 0.6473,0.14823 0.754267,0.68308 0.122318,0.61156 0.251901,0.69107 1.367549,0.83906 1.936525,0.25689 2.297818,0.62608 2.441753,2.49508 0.21971,2.85295 0.790416,5.80862 1.062562,5.50297 0.09598,-0.10779 0.03682,-1.84114 -0.1315,-3.85191 z m -5.845011,-6.29617 c -0.26563,-0.26564 -0.161774,-0.54394 0.202968,-0.54394 0.194588,0 0.353795,0.0999 0.353795,0.22194 0,0.29742 -0.368326,0.51044 -0.556763,0.322 z m 6.608433,-3.04555 c 0.508803,-0.13649 0.508803,-0.13649 -0.05902,-0.97316 -0.312279,-0.46016 -0.567772,-1.08577 -0.567772,-1.39024 0,-0.67497 -1.1002,-1.19865 -2.983157,-1.41996 -1.265663,-0.14876 -1.265663,-0.14876 -0.910255,0.70187 0.19548,0.46784 0.355417,1.06415 0.355417,1.32513 0,0.51841 1.47054,1.43537 2.712464,1.69136 0.389177,0.0802 0.760668,0.15836 0.825531,0.17367 0.0649,0.0153 0.346895,-0.0336 0.626734,-0.10867 z m 1.024318,0.025 c 0,-0.0649 -0.05304,-0.11793 -0.117931,-0.11793 -0.0649,0 -0.117932,0.053 -0.117932,0.11793 0,0.0649 0.05304,0.11793 0.117932,0.11793 0.0649,0 0.117931,-0.053 0.117931,-0.11793 z m -5.130085,-0.58708 c -0.597797,-0.36448 -0.766569,-0.62735 -0.766569,-1.19396 0,-1.47445 -0.910424,-2.11075 -3.020081,-2.11075 -1.024398,0 -1.048307,0.016 -0.662321,0.44248 0.220245,0.24336 0.46365,0.83199 0.540904,1.30807 0.188473,1.16142 1.689759,1.8952 4.08496,1.99658 0.562317,0.0238 0.554116,0.004 -0.176893,-0.44242 z m 8.668088,0.26216 c 0,-0.11384 -0.147421,-0.32933 -0.327595,-0.47886 -0.180182,-0.14953 -0.446213,-0.74293 -0.591182,-1.31866 -0.325741,-1.29365 -0.852079,-1.60789 -2.773993,-1.65611 -1.586028,-0.0398 -1.576196,-0.0862 -0.469801,2.22023 0.500753,1.04389 4.162571,2.12892 4.162571,1.2334 z m 2.004856,-1.55368 c 0,-1.63626 0,-1.63626 -1.297257,-1.64783 -1.433874,-0.0127 -1.619182,0.45791 -0.802352,2.03795 1.003734,1.94158 2.099609,1.73796 2.099609,-0.39012 z m -14.819798,0.86115 c -0.216465,-0.23919 -0.393572,-0.65359 -0.393572,-0.92088 0,-1.56285 -1.766809,-2.12616 -1.97205,-0.62876 -0.262634,1.91612 -0.305585,1.85283 1.304317,1.92201 1.40048,0.0602 1.440159,0.0463 1.061305,-0.37237 z m 13.994268,-3.23986 c 0,-0.0713 -0.157023,-0.43328 -0.348937,-0.80441 -0.191914,-0.37112 -0.397164,-1.02923 -0.456117,-1.46245 -0.207925,-1.52801 -0.435818,-2.32081 -0.667135,-2.32081 -0.128638,0 -0.168299,0.23881 -0.08817,0.5307 0.08014,0.29188 0.263133,1.27367 0.406588,2.18175 0.143445,0.90809 0.308776,1.73067 0.367398,1.82798 0.122211,0.20285 0.786333,0.24276 0.786333,0.0472 z m 0.782357,-0.90224 c -0.02371,-0.56756 -0.321257,-1.65551 -0.661118,-2.41765 -0.339853,-0.76214 -0.555105,-1.12037 -0.478333,-0.79605 0.07675,0.32432 0.197344,0.96115 0.267939,1.41519 0.0706,0.45405 0.215716,1.09089 0.322504,1.4152 0.106797,0.32433 0.253853,0.77541 0.32681,1.00243 0.210029,0.65361 0.268616,0.49034 0.222198,-0.61912 z m -12.505026,-1.68052 c 0.132659,-1.86888 0.130609,-1.87791 -0.214423,-0.94347 -0.648014,1.75498 -0.849948,3.00736 -0.517985,3.21253 0.442745,0.27363 0.582705,-0.15998 0.732408,-2.26906 z m 1.292238,0.88402 c 0.0361,-0.87539 0.12411,-1.8834 0.195587,-2.24002 0.10119,-0.5048 0.05322,-0.61894 -0.216679,-0.51538 -0.230398,0.0884 -0.402861,0.6579 -0.514267,1.6982 -0.09219,0.86084 -0.260396,1.80921 -0.373799,2.10747 -0.176858,0.46519 -0.131544,0.54224 0.31868,0.54183 0.48418,-4.6e-4 0.529948,-0.12385 0.590478,-1.5921 z m 1.283788,-0.23539 c 0.05616,-1.00538 0.147002,-1.95002 0.20188,-2.0992 0.05491,-0.14919 -0.0062,-0.30379 -0.13609,-0.34355 -0.236541,-0.0725 -0.793875,2.40593 -0.814521,3.62209 -0.02844,1.6762 0.648833,0.60941 0.748731,-1.17934 z m 1.463274,1.29727 c 0.367916,-1.78797 0.303837,-3.95076 -0.117049,-3.95076 -0.257535,0 -0.41577,0.16299 -0.40074,0.41277 0.01364,0.22702 -0.05509,1.23534 -0.152716,2.24072 -0.175529,1.8071 0.354552,2.8327 0.670505,1.29727 z m 1.704388,-1.65107 c 0.26669,-2.46084 0.276826,-2.39321 -0.329797,-2.20068 -0.377998,0.11997 -0.446284,0.3711 -0.438787,1.61363 0.0053,0.80935 -0.069,1.76343 -0.164261,2.12019 -0.142981,0.53563 -0.0974,0.64863 0.261627,0.64863 0.374076,0 0.467777,-0.30458 0.671218,-2.18177 z m 1.500119,0.7076 c 0.0018,-0.81079 0.07016,-1.88298 0.152689,-2.38265 0.130243,-0.78838 0.09436,-0.89752 -0.271486,-0.82553 -0.249699,0.0491 -0.444225,0.32336 -0.477147,0.67262 -0.03058,0.32432 -0.128272,1.35918 -0.217124,2.2997 -0.153225,1.6218 -0.136483,1.71003 0.324457,1.71003 0.438653,0 0.486266,-0.14364 0.488611,-1.47417 z m 1.365962,-0.76604 c -0.05875,-1.84701 -0.397102,-3.26461 -0.43638,-1.82848 -0.0263,0.96061 -0.229659,3.04711 -0.344872,3.53799 -0.0985,0.41963 -0.02229,0.5307 0.363994,0.5307 0.464871,0 0.485098,-0.10859 0.417258,-2.24021 z m 1.473232,1.68052 c -0.117032,-0.30782 -0.287684,-1.31978 -0.379229,-2.24877 -0.2648,-2.68732 -0.495011,-1.13812 -0.356006,2.39569 0.0098,0.24832 0.201854,0.41277 0.482139,0.41277 0.392832,0 0.43252,-0.0878 0.253096,-0.55969 z m -12.689211,-1.51411 c 0.825165,-2.33656 0.814334,-2.47132 -0.0974,-1.2127 -1.002459,1.38386 -1.523181,3.05089 -0.952716,3.05002 0.287987,-4.5e-4 0.584862,-0.51988 1.050117,-1.83732 z m 1.319232,-0.0185 c 0.279803,-1.02098 0.508731,-1.92317 0.508731,-2.00486 0,-0.32681 -0.425148,-0.12221 -0.549052,0.26424 -0.07274,0.22702 -0.350523,1.03954 -0.617178,1.80561 -0.571597,1.64212 -0.585602,1.79135 -0.168032,1.79135 0.195222,0 0.51203,-0.7124 0.825531,-1.85634 z m -1.484634,-4.38063 c 0.02175,-4.49467 1.887299,-6.07577 7.772096,-6.58716 5.987191,-0.52028 3.89302,-2.82584 -2.192125,-2.41339 -5.29013,0.35857 -8.878483,5.87975 -6.980147,10.73996 0.922387,2.36154 1.383078,1.78923 1.400176,-1.73941 z m 1.757502,1.28378 c 0,-0.12973 -0.0468,-0.23587 -0.104016,-0.23587 -0.05723,0 -0.16961,0.10614 -0.249779,0.23587 -0.08014,0.12972 -0.03334,0.23586 0.104007,0.23586 0.137383,0 0.249788,-0.10614 0.249788,-0.23586 z m 2.605122,-0.53071 c -0.279099,-0.42161 -0.678501,-1.10696 -0.887558,-1.52302 -0.380093,-0.75646 -0.380093,-0.75646 -1.016215,0.0967 -0.945673,1.26831 -0.412934,2.18923 1.267714,2.19142 1.143525,0.002 1.143525,0.002 0.636059,-0.76508 z m 2.602065,0.25995 c -0.259594,-0.27863 -0.661751,-0.96814 -0.893692,-1.53224 -0.38151,-0.92787 -2.190699,-1.65575 -2.190699,-0.88136 0,0.95405 1.76458,2.92022 2.620795,2.92022 0.935581,0 0.935581,0 0.463596,-0.50662 z m 4.369667,-0.96755 c -0.692907,-1.25773 -0.918795,-1.48501 -1.538567,-1.54807 -0.85716,-0.0872 -0.865843,-0.0509 -0.260013,1.08574 0.714436,1.34042 1.029221,1.65124 1.785484,1.76295 0.383035,0.0566 0.725411,0.11877 0.760829,0.13821 0.03539,0.0194 -0.301056,-0.62803 -0.747733,-1.43883 z m -1.932888,0.64864 c -0.212498,-0.32431 -0.464943,-0.58967 -0.56098,-0.58967 -0.09605,0 -0.272948,-0.34495 -0.393126,-0.76657 -0.207364,-0.72747 -1.972532,-1.3703 -1.972532,-0.71834 0,1.12096 1.463854,2.66425 2.527111,2.66425 0.784068,0 0.784996,-0.002 0.399527,-0.58967 z m 4.001448,-0.5307 c -0.943614,-1.65312 -2.210766,-2.69414 -2.210766,-1.81625 0,0.79705 1.757876,2.93662 2.412736,2.93662 0.397806,0 0.37946,-0.10176 -0.20197,-1.12037 z m -9.90091,-4.0416 c 0.440169,-1.54161 0.46242,-1.44708 -0.279706,-1.18837 -1.675273,0.584 -2.629709,2.32839 -2.635726,4.8172 -0.0027,1.16013 2.403108,-1.83451 2.915432,-3.62883 z m 7.8312,1.09982 c -0.21831,-0.29548 -0.67515,-1.14755 -1.015207,-1.89348 -0.51227,-1.1237 -0.722861,-1.36032 -1.228294,-1.38012 -0.818701,-0.0321 -2.117117,0.0456 -2.716395,0.16265 -0.268482,0.0524 -0.820681,0.15825 -1.227116,0.23521 -0.565455,0.10706 -0.712823,0.23991 -0.627608,0.56578 0.06124,0.23423 -0.144168,0.95982 -0.456492,1.61242 -0.567853,1.18654 -0.567853,1.18654 3.550092,1.21067 4.117944,0.0242 4.117944,0.0242 3.72102,-0.51313 z m -1.61936,-6.94863 c 0.100075,-0.30409 -4.335096,-0.55309 -5.080413,-0.28523 -0.540735,0.19434 0.576892,0.39772 2.425698,0.44141 0.775403,0.0184 1.460947,0.0844 1.523421,0.14691 0.205019,0.20502 1.037476,-0.018 1.131294,-0.30309 z m 0.534423,-1.07737 c 2.32e-4,-0.0973 -0.07916,-0.17777 -0.176483,-0.17884 -0.09729,-8.9e-4 -1.113322,-0.10922 -2.257844,-0.24035 -1.574253,-0.18036 -2.320862,-0.16625 -3.066259,0.058 -0.985316,0.29638 -0.985316,0.29638 0.783676,0.41774 2.544601,0.17456 4.716419,0.14853 4.71691,-0.0565 z m 0.574583,-1.14473 c 0.07854,-0.0783 -0.575715,-0.21034 -1.453958,-0.29351 -0.878243,-0.0832 -1.756013,-0.16853 -1.950602,-0.18969 -1.516958,-0.16499 -4.514289,0.0658 -4.294106,0.33066 0.25486,0.30656 7.401898,0.44816 7.698666,0.15254 z"
       id="path4631"
       inkscape:connector-curvature="0" />
    <g
       aria-label="Python bindings for cairo"
       style="font-style:normal;font-weight:normal;font-size:10.61124325px;line-height:6.63202715px;font-family:Sans;letter-spacing:0px;word-spacing:0px;fill:#000000;fill-opacity:1;stroke:none;stroke-width:0.26528108px;stroke-linecap:butt;stroke-linejoin:miter;stroke-opacity:1"
       id="text4639"
       transform="translate(2.0164679)">
      <path
         d="m 51.206517,182.36232 c -0.16978,0 -1.117717,0.0283 -1.068198,0.19807 0.09196,0.31126 0.05659,0.0778 0.05659,2.78015 v 1.59168 c 0,1.08235 -0.02122,0.96916 0.25467,0.96916 0.219299,0 0.205151,-0.0354 0.198076,-0.60837 -0.02122,-1.73317 -0.04245,-1.91003 0.04245,-1.9171 1.39361,-0.11319 2.256658,-0.19808 2.256658,-1.74025 0,-0.89134 -0.855974,-1.2592 -1.740244,-1.27334 z m -0.127335,0.40322 c 0.714491,0 1.450204,0.28297 1.450204,0.91964 0,0.9055 -0.608378,1.25213 -1.499723,1.25213 -0.473969,0 -0.389079,0.0425 -0.389079,-1.10357 0,-0.34663 -0.0071,-0.69327 0.03537,-1.03283 0.05659,-0.0424 0.33956,-0.0354 0.403227,-0.0354 z"
         style="font-style:normal;font-variant:normal;font-weight:normal;font-stretch:normal;font-size:7.07416201px;font-family:Grundschrift;-inkscape-font-specification:Grundschrift;stroke-width:0.26528108px"
         id="path4656"
         inkscape:connector-curvature="0" />
      <path
         d="m 54.521094,187.75283 c 0,0.21222 -0.261744,0.65789 -0.438598,1.0399 -0.445673,0.96208 -0.445673,0.97623 -0.16978,0.97623 0.148557,0 0.353708,-0.41737 1.209681,-2.17884 1.124792,-2.31325 1.386536,-2.62451 0.976235,-2.62451 -0.09196,0 -0.16978,0.18392 -0.693268,1.16723 -0.275892,0.52349 -0.502266,1.03991 -0.636675,1.03991 -0.09904,0 -0.233447,-0.23345 -0.785232,-1.23091 -0.473969,-0.85597 -0.523488,-1.02575 -0.679119,-1.02575 -0.304189,0 -0.212225,0.16978 0.502265,1.46435 0.565933,1.02575 0.714491,1.15309 0.714491,1.37239 z"
         style="font-style:normal;font-variant:normal;font-weight:normal;font-stretch:normal;font-size:7.07416201px;font-family:Grundschrift;-inkscape-font-specification:Grundschrift;stroke-width:0.26528108px"
         id="path4658"
         inkscape:connector-curvature="0" />
      <path
         d="m 57.428464,182.6665 c -0.332486,0 -0.290041,0.13441 -0.304189,1.05405 -0.02122,1.13894 0.04245,1.0965 -0.183928,1.11772 -0.268818,0.0283 -0.410302,-0.0707 -0.410302,0.21223 0,0.12733 0.07074,0.17685 0.311264,0.17685 0.325411,0 0.247595,-0.0354 0.247595,0.85597 0,0.88427 -0.03537,1.93125 0.813529,1.93125 0.16978,0 0.834751,-0.191 0.834751,-0.40323 0,-0.50934 -0.297115,0.0212 -0.771084,0.0212 -0.530562,0 -0.438598,-0.84183 -0.452746,-1.48558 -0.02122,-0.97623 -0.127335,-0.99746 0.353708,-0.99746 0.389079,0 0.353708,0 0.353708,-0.21222 0,-0.099 -0.08489,-0.16978 -0.488117,-0.16978 -0.290041,0 -0.212225,0.0707 -0.205151,-0.99746 0.0071,-0.81353 0.04952,-1.10357 -0.09904,-1.10357 z"
         style="font-style:normal;font-variant:normal;font-weight:normal;font-stretch:normal;font-size:7.07416201px;font-family:Grundschrift;-inkscape-font-specification:Grundschrift;stroke-width:0.26528108px"
         id="path4660"
         inkscape:connector-curvature="0" />
      <path
         d="m 58.99948,186.62803 c -0.0071,1.0682 -0.03537,1.32995 0.240522,1.3158 0.42445,-0.0212 -0.01415,-1.24505 0.360782,-2.15055 0.09904,-0.23344 0.50934,-0.47397 0.813529,-0.45982 1.386535,0.0778 0.113186,2.58915 1.202607,2.58915 0.297115,0 0.693268,-0.19808 0.693268,-0.39616 0,-0.39615 -0.25467,0.0283 -0.516414,0.0283 -0.466894,0 -0.233447,-0.86305 -0.25467,-1.16724 -0.08489,-1.14601 -0.431523,-1.47142 -1.237978,-1.4219 -0.332486,0.0212 -0.643749,0.31833 -0.827677,0.31833 -0.134409,0 -0.0283,-0.21222 -0.0283,-2.0798 0,-0.50227 0.04245,-0.65082 -0.219299,-0.65082 -0.268818,0 -0.20515,0.191 -0.226373,2.75185 z"
         style="font-style:normal;font-variant:normal;font-weight:normal;font-stretch:normal;font-size:7.07416201px;font-family:Grundschrift;-inkscape-font-specification:Grundschrift;stroke-width:0.26528108px"
         id="path4662"
         inkscape:connector-curvature="0" />
      <path
         d="m 63.95681,184.90194 c -1.046976,0 -1.535093,0.62253 -1.549241,1.62706 -0.01415,0.76401 0.891344,1.4219 1.584612,1.4219 0.778158,0 1.457277,-0.7923 1.457277,-1.56339 0,-0.86304 -0.650823,-1.48557 -1.492648,-1.48557 z m -0.05659,0.42445 c 0.728639,0.0142 1.05405,0.53056 1.103569,0.97623 0.07074,0.67205 -0.54471,1.23798 -1.110643,1.23798 -0.50934,0 -1.05405,-0.53763 -1.068199,-1.06112 -0.01415,-0.52349 0.297115,-1.16724 1.075273,-1.15309 z"
         style="font-style:normal;font-variant:normal;font-weight:normal;font-stretch:normal;font-size:7.07416201px;font-family:Grundschrift;-inkscape-font-specification:Grundschrift;stroke-width:0.26528108px"
         id="path4664"
         inkscape:connector-curvature="0" />
      <path
         d="m 65.899441,184.94438 c -0.02122,0.0778 -0.01415,0.26175 -0.01415,0.34664 0,0.38908 -0.0071,0.77816 -0.0071,1.16723 0.0071,1.06113 -0.05659,1.40069 0.191003,1.40069 0.233447,0 0.233447,-0.191 0.240521,-0.77816 0.0071,-0.33956 -0.0071,-0.8206 0.148557,-1.12479 0.16978,-0.32541 0.622527,-0.63668 1.110644,-0.63668 0.785232,0 -0.120261,2.59622 1.082347,2.59622 0.183928,0 0.495191,-0.29711 0.495191,-0.48104 0,-0.0495 -0.0283,-0.15563 -0.08489,-0.15563 -0.04952,0 -0.148557,0.19807 -0.367856,0.19807 -0.813529,0 0.304189,-2.54669 -1.209682,-2.54669 -0.558859,0 -1.025754,0.49519 -1.167237,0.49519 -0.141483,0 0.08489,-0.48105 -0.191002,-0.55886 -0.06367,-0.0212 -0.233448,0.0495 -0.25467,0.10611 z"
         style="font-style:normal;font-variant:normal;font-weight:normal;font-stretch:normal;font-size:7.07416201px;font-family:Grundschrift;-inkscape-font-specification:Grundschrift;stroke-width:0.26528108px"
         id="path4666"
         inkscape:connector-curvature="0" />
      <path
         d="m 73.784038,182.39769 c -0.0283,1.37238 -0.05659,2.75184 -0.05659,4.12423 0,1.37239 -0.09196,1.43606 0.615453,1.40776 0.431523,-0.0142 0.863047,0.0212 1.2592,-0.17685 0.686194,-0.34664 1.054051,-0.82061 1.054051,-1.60584 0,-0.7923 -0.59423,-1.27335 -1.372388,-1.27335 -0.42445,0 -0.891344,0.33956 -0.990383,0.33956 -0.04245,0 -0.07074,0.0212 -0.07782,-0.0142 -0.06367,-0.44567 0,-1.98076 0,-2.69525 0,-0.191 -0.205151,-0.12734 -0.410302,-0.12734 -0.01415,0 -0.0283,0.0142 -0.0283,0.0283 z m 2.433512,3.74223 c 0,0.33956 -0.01415,0.6296 -0.396154,0.96916 -0.346633,0.30419 -0.919641,0.4386 -1.181385,0.4386 -0.275892,0 -0.466894,-0.0637 -0.466894,-0.33249 0,-1.49265 0.325411,-1.80391 1.032827,-1.9171 0.431524,-0.0707 1.011606,0.10611 1.011606,0.84183 z"
         style="font-style:normal;font-variant:normal;font-weight:normal;font-stretch:normal;font-size:7.07416201px;font-family:Grundschrift;-inkscape-font-specification:Grundschrift;stroke-width:0.26528108px"
         id="path4668"
         inkscape:connector-curvature="0" />
      <path
         d="m 77.51643,183.64274 c -0.155631,-0.15563 -0.438598,0.14148 -0.297114,0.33248 0.162705,0.21223 0.565932,-0.11318 0.297114,-0.33248 z m -0.134409,1.32994 c -0.226373,0 -0.191002,0.31834 -0.191002,1.33702 0,0.87012 -0.176854,1.62705 0.594229,1.62705 0.42445,0 0.785232,-0.33248 0.785232,-0.54471 0,-0.48104 -0.353708,0.20516 -0.707416,0.20516 -0.360782,0 -0.240521,-0.24053 -0.240521,-1.86758 0,-0.66497 -0.0071,-0.75694 -0.240522,-0.75694 z"
         style="font-style:normal;font-variant:normal;font-weight:normal;font-stretch:normal;font-size:7.07416201px;font-family:Grundschrift;-inkscape-font-specification:Grundschrift;stroke-width:0.26528108px"
         id="path4670"
         inkscape:connector-curvature="0" />
      <path
         d="m 78.76281,184.94438 c -0.02122,0.0778 -0.01415,0.26175 -0.01415,0.34664 0,0.38908 -0.0071,0.77816 -0.0071,1.16723 0.0071,1.06113 -0.05659,1.40069 0.191003,1.40069 0.233447,0 0.233447,-0.191 0.240521,-0.77816 0.0071,-0.33956 -0.0071,-0.8206 0.148557,-1.12479 0.16978,-0.32541 0.622527,-0.63668 1.110644,-0.63668 0.785232,0 -0.120261,2.59622 1.082347,2.59622 0.183928,0 0.495191,-0.29711 0.495191,-0.48104 0,-0.0495 -0.0283,-0.15563 -0.08489,-0.15563 -0.04952,0 -0.148557,0.19807 -0.367856,0.19807 -0.813529,0 0.304189,-2.54669 -1.209682,-2.54669 -0.558859,0 -1.025754,0.49519 -1.167237,0.49519 -0.141483,0 0.08489,-0.48105 -0.191002,-0.55886 -0.06367,-0.0212 -0.233448,0.0495 -0.25467,0.10611 z"
         style="font-style:normal;font-variant:normal;font-weight:normal;font-stretch:normal;font-size:7.07416201px;font-family:Grundschrift;-inkscape-font-specification:Grundschrift;stroke-width:0.26528108px"
         id="path4672"
         inkscape:connector-curvature="0" />
      <path
         d="m 84.509351,182.75847 c -0.01415,-0.191 -0.382004,-0.23345 -0.382004,0.099 0,1.4502 -0.04245,1.4219 -0.04245,2.15762 0,0.11318 -0.07782,-0.099 -0.544711,-0.099 -0.537636,0 -1.4785,0.55178 -1.4785,1.57046 0,0.71449 0.389079,1.44313 1.216756,1.44313 0.558859,0 0.79938,-0.31834 0.983309,-0.31834 0.212224,0 0.254669,0.31834 0.643748,0.31834 0.212225,0 0.707417,-0.25467 0.59423,-0.48104 -0.141483,-0.27589 -0.325411,0.0495 -0.580081,0.0495 -0.07782,0 -0.233448,-0.099 -0.275893,-0.16271 -0.226373,-0.36078 -0.09904,-4.05349 -0.134409,-4.57698 z m -0.955012,2.5184 c 0.615452,0 0.537637,0.67205 0.537637,1.08235 0,0.77108 -0.01415,1.18846 -0.827677,1.18846 -0.488117,0 -0.792306,-0.45275 -0.792306,-1.11772 0,-0.66497 0.622526,-1.15309 1.082346,-1.15309 z"
         style="font-style:normal;font-variant:normal;font-weight:normal;font-stretch:normal;font-size:7.07416201px;font-family:Grundschrift;-inkscape-font-specification:Grundschrift;stroke-width:0.26528108px"
         id="path4674"
         inkscape:connector-curvature="0" />
      <path
         d="m 86.110434,183.64274 c -0.155632,-0.15563 -0.438598,0.14148 -0.297115,0.33248 0.162706,0.21223 0.565933,-0.11318 0.297115,-0.33248 z m -0.134409,1.32994 c -0.226373,0 -0.191002,0.31834 -0.191002,1.33702 0,0.87012 -0.176855,1.62705 0.594229,1.62705 0.42445,0 0.785232,-0.33248 0.785232,-0.54471 0,-0.48104 -0.353708,0.20516 -0.707416,0.20516 -0.360782,0 -0.240522,-0.24053 -0.240522,-1.86758 0,-0.66497 -0.0071,-0.75694 -0.240521,-0.75694 z"
         style="font-style:normal;font-variant:normal;font-weight:normal;font-stretch:normal;font-size:7.07416201px;font-family:Grundschrift;-inkscape-font-specification:Grundschrift;stroke-width:0.26528108px"
         id="path4676"
         inkscape:connector-curvature="0" />
      <path
         d="m 87.356811,184.94438 c -0.02122,0.0778 -0.01415,0.26175 -0.01415,0.34664 0,0.38908 -0.0071,0.77816 -0.0071,1.16723 0.0071,1.06113 -0.05659,1.40069 0.191002,1.40069 0.233448,0 0.233448,-0.191 0.240522,-0.77816 0.0071,-0.33956 -0.0071,-0.8206 0.148557,-1.12479 0.16978,-0.32541 0.622526,-0.63668 1.110644,-0.63668 0.785232,0 -0.120261,2.59622 1.082346,2.59622 0.183929,0 0.495192,-0.29711 0.495192,-0.48104 0,-0.0495 -0.0283,-0.15563 -0.08489,-0.15563 -0.04952,0 -0.148558,0.19807 -0.367857,0.19807 -0.813528,0 0.304189,-2.54669 -1.209681,-2.54669 -0.558859,0 -1.025754,0.49519 -1.167237,0.49519 -0.141483,0 0.08489,-0.48105 -0.191002,-0.55886 -0.06367,-0.0212 -0.233448,0.0495 -0.25467,0.10611 z"
         style="font-style:normal;font-variant:normal;font-weight:normal;font-stretch:normal;font-size:7.07416201px;font-family:Grundschrift;-inkscape-font-specification:Grundschrift;stroke-width:0.26528108px"
         id="path4678"
         inkscape:connector-curvature="0" />
      <path
         d="m 92.204934,184.85949 c -0.912566,0.0142 -1.485574,0.70742 -1.485574,1.61999 0,0.72864 0.332486,1.47142 1.153089,1.47142 0.523488,0 0.905493,-0.38908 0.983308,-0.39615 0.106113,0.0637 0.09904,0.31126 0.09196,0.41738 -0.03537,0.64374 -0.02122,1.49264 -0.877196,1.53509 -0.848899,0 -0.855973,-0.77816 -1.103569,-0.31834 -0.120261,0.2193 0.452746,0.69327 1.153089,0.69327 1.167236,0 1.2592,-1.0399 1.252126,-2.46181 0,-0.65082 0.0283,-1.33702 0.06367,-1.98784 0.01415,-0.32541 -0.106113,-0.31834 -0.332486,-0.31834 -0.183928,0 -0.346634,-0.26174 -0.898419,-0.25467 z m 0.02122,0.38908 c 0.756935,0 0.71449,0.4669 0.71449,1.02576 0,0.65082 -0.339559,1.27335 -1.082346,1.27335 -0.537637,0 -0.707417,-0.48812 -0.707417,-0.97624 0,-0.74279 0.318338,-1.32287 1.075273,-1.32287 z"
         style="font-style:normal;font-variant:normal;font-weight:normal;font-stretch:normal;font-size:7.07416201px;font-family:Grundschrift;-inkscape-font-specification:Grundschrift;stroke-width:0.26528108px"
         id="path4680"
         inkscape:connector-curvature="0" />
      <path
         d="m 93.921743,185.81451 c 0,0.89134 1.577538,0.67204 1.535093,1.35116 -0.02122,0.32541 -0.360782,0.45982 -0.601304,0.45982 -0.37493,0 -0.622526,-0.32541 -0.855973,-0.32541 -0.488118,0 0.183928,0.70742 0.834751,0.70742 0.516414,0 1.018679,-0.32542 1.018679,-0.93379 0,-0.92672 -1.528019,-0.74986 -1.528019,-1.2875 0,-0.40323 0.452746,-0.67912 1.160163,-0.4386 0.06367,0.0212 0.155631,-0.0142 0.191002,-0.099 0.07782,-0.17685 -0.113187,-0.33248 -0.672045,-0.34663 -0.721565,-0.0212 -1.082347,0.42445 -1.082347,0.91257 z"
         style="font-style:normal;font-variant:normal;font-weight:normal;font-stretch:normal;font-size:7.07416201px;font-family:Grundschrift;-inkscape-font-specification:Grundschrift;stroke-width:0.26528108px"
         id="path4682"
         inkscape:connector-curvature="0" />
      <path
         d="m 101.1302,187.45571 c -0.0212,0.60131 -0.099,1.22383 0.19808,1.20261 0.26882,-0.0212 0.20515,-0.12734 0.21223,-1.03283 0,-0.23345 0.0354,-2.20006 0.0566,-2.39107 0.64375,-0.0566 0.96209,-0.0354 0.96209,-0.23344 0,-0.2476 -0.18393,-0.19808 -0.94794,-0.19808 -0.0142,-0.20515 -0.007,-0.4103 0,-0.61545 0.007,-0.4103 0.0566,-1.15309 0.70741,-1.15309 0.38908,0 0.67205,0.38201 0.67205,-0.0142 0,-0.26882 -0.51641,-0.36078 -0.71449,-0.36078 -0.63668,0 -0.98331,0.32541 -1.07527,1.36531 -0.0566,0.64375 0.092,0.82061 -0.41738,0.82061 -0.20515,0 -0.33249,0.007 -0.33249,0.12733 0,0.29004 0.16978,0.22637 0.67912,0.24052 z"
         style="font-style:normal;font-variant:normal;font-weight:normal;font-stretch:normal;font-size:7.07416201px;font-family:Grundschrift;-inkscape-font-specification:Grundschrift;stroke-width:0.26528108px"
         id="path4684"
         inkscape:connector-curvature="0" />
      <path
         d="m 104.59179,184.90194 c -1.04697,0 -1.53509,0.62253 -1.54924,1.62706 -0.0142,0.76401 0.89135,1.4219 1.58461,1.4219 0.77816,0 1.45728,-0.7923 1.45728,-1.56339 0,-0.86304 -0.65082,-1.48557 -1.49265,-1.48557 z m -0.0566,0.42445 c 0.72864,0.0142 1.05405,0.53056 1.10357,0.97623 0.0707,0.67205 -0.54471,1.23798 -1.11065,1.23798 -0.50933,0 -1.05405,-0.53763 -1.06819,-1.06112 -0.0142,-0.52349 0.29711,-1.16724 1.07527,-1.15309 z"
         style="font-style:normal;font-variant:normal;font-weight:normal;font-stretch:normal;font-size:7.07416201px;font-family:Grundschrift;-inkscape-font-specification:Grundschrift;stroke-width:0.26528108px"
         id="path4686"
         inkscape:connector-curvature="0" />
      <path
         d="m 106.81739,184.95146 c -0.0354,0.44567 -0.0212,1.00453 -0.0212,1.45728 0,1.39361 -0.0566,1.4785 0.2193,1.47142 0.20515,-0.007 0.16978,-0.20515 0.16978,-0.60838 0,-1.06819 0.45982,-1.98076 1.05405,-1.98076 0.21222,0 0.50934,0.19807 0.58715,0.11318 0.2476,-0.26174 -0.191,-0.45982 -0.58715,-0.45982 -0.56594,0 -1.03991,0.67205 -1.04698,0.50227 -0.0283,-0.48812 0.0495,-0.4386 -0.20515,-0.51641 z"
         style="font-style:normal;font-variant:normal;font-weight:normal;font-stretch:normal;font-size:7.07416201px;font-family:Grundschrift;-inkscape-font-specification:Grundschrift;stroke-width:0.26528108px"
         id="path4688"
         inkscape:connector-curvature="0" />
      <path
         d="m 115.13627,184.88072 c -0.71449,0 -1.49972,0.58715 -1.49972,1.64828 0,0.56593 0.38908,1.36531 1.21676,1.36531 0.6013,0 1.11771,-0.46689 1.11771,-0.78523 0,-0.0495 -0.0141,-0.11319 -0.0778,-0.11319 -0.22638,0 -0.41738,0.52349 -1.03283,0.52349 -0.48812,0 -0.83475,-0.51641 -0.83475,-0.97624 0,-0.67911 0.49519,-1.29457 1.11772,-1.29457 0.31126,0 0.26882,0.11319 0.34663,0.11319 0.092,0 0.18393,-0.0495 0.18393,-0.15563 0,-0.32541 -0.29712,-0.32541 -0.53764,-0.32541 z"
         style="font-style:normal;font-variant:normal;font-weight:normal;font-stretch:normal;font-size:7.07416201px;font-family:Grundschrift;-inkscape-font-specification:Grundschrift;stroke-width:0.26528108px"
         id="path4690"
         inkscape:connector-curvature="0" />
      <path
         d="m 117.72343,185.00805 c -0.96209,0 -1.5068,0.89135 -1.5068,1.69073 0,0.64375 0.37493,1.23797 1.01868,1.23797 0.67205,0 1.0682,-0.47396 1.19554,-0.47396 0.0778,0 0.11318,0.12733 0.1344,0.18392 0.0849,0.21223 0.37494,0.2759 0.58009,0.2759 0.17685,0 0.50226,-0.0566 0.50226,-0.29004 0,-0.19101 -0.26882,-0.14149 -0.40323,-0.14149 -0.70034,0 -0.53763,-1.01868 -0.53763,-1.49265 0,-0.65789 -0.29712,-0.99038 -0.98331,-0.99038 z m 0.52349,1.40776 c 0,0.42445 0.0283,0.56593 -0.29004,0.86305 -0.24052,0.2193 -0.57301,0.31834 -0.89135,0.25467 -0.29004,-0.0566 -0.44567,-0.61545 -0.44567,-0.8772 0,-0.72156 0.53764,-1.2592 1.16724,-1.2592 0.53763,0 0.48104,0.53056 0.45982,1.01868 z"
         style="font-style:normal;font-variant:normal;font-weight:normal;font-stretch:normal;font-size:7.07416201px;font-family:Grundschrift;-inkscape-font-specification:Grundschrift;stroke-width:0.26528108px"
         id="path4692"
         inkscape:connector-curvature="0" />
      <path
         d="m 120.26537,183.64274 c -0.15563,-0.15563 -0.4386,0.14148 -0.29711,0.33248 0.1627,0.21223 0.56593,-0.11318 0.29711,-0.33248 z m -0.13441,1.32994 c -0.22637,0 -0.191,0.31834 -0.191,1.33702 0,0.87012 -0.17685,1.62705 0.59423,1.62705 0.42445,0 0.78523,-0.33248 0.78523,-0.54471 0,-0.48104 -0.35371,0.20516 -0.70741,0.20516 -0.36079,0 -0.24053,-0.24053 -0.24053,-1.86758 0,-0.66497 -0.007,-0.75694 -0.24052,-0.75694 z"
         style="font-style:normal;font-variant:normal;font-weight:normal;font-stretch:normal;font-size:7.07416201px;font-family:Grundschrift;-inkscape-font-specification:Grundschrift;stroke-width:0.26528108px"
         id="path4694"
         inkscape:connector-curvature="0" />
      <path
         d="m 121.79472,184.95146 c -0.0354,0.44567 -0.0212,1.00453 -0.0212,1.45728 0,1.39361 -0.0566,1.4785 0.2193,1.47142 0.20515,-0.007 0.16978,-0.20515 0.16978,-0.60838 0,-1.06819 0.45982,-1.98076 1.05405,-1.98076 0.21223,0 0.50934,0.19807 0.58716,0.11318 0.24759,-0.26174 -0.191,-0.45982 -0.58716,-0.45982 -0.56593,0 -1.0399,0.67205 -1.04697,0.50227 -0.0283,-0.48812 0.0495,-0.4386 -0.20515,-0.51641 z"
         style="font-style:normal;font-variant:normal;font-weight:normal;font-stretch:normal;font-size:7.07416201px;font-family:Grundschrift;-inkscape-font-specification:Grundschrift;stroke-width:0.26528108px"
         id="path4696"
         inkscape:connector-curvature="0" />
      <path
         d="m 125.66229,184.90194 c -1.04697,0 -1.53509,0.62253 -1.54924,1.62706 -0.0142,0.76401 0.89134,1.4219 1.58461,1.4219 0.77816,0 1.45728,-0.7923 1.45728,-1.56339 0,-0.86304 -0.65082,-1.48557 -1.49265,-1.48557 z m -0.0566,0.42445 c 0.72864,0.0142 1.05405,0.53056 1.10357,0.97623 0.0707,0.67205 -0.54471,1.23798 -1.11065,1.23798 -0.50934,0 -1.05405,-0.53763 -1.06819,-1.06112 -0.0142,-0.52349 0.29711,-1.16724 1.07527,-1.15309 z"
         style="font-style:normal;font-variant:normal;font-weight:normal;font-stretch:normal;font-size:7.07416201px;font-family:Grundschrift;-inkscape-font-specification:Grundschrift;stroke-width:0.26528108px"
         id="path4698"
         inkscape:connector-curvature="0" />
    </g>
    <g
       aria-label="Pycairo"
       style="font-style:normal;font-weight:normal;font-size:10.58333302px;line-height:6.61458302px;font-family:Sans;letter-spacing:0px;word-spacing:0px;fill:#000000;fill-opacity:1;stroke:none;stroke-width:0.26458332px;stroke-linecap:butt;stroke-linejoin:miter;stroke-opacity:1"
       id="text4520"
       transform="translate(1.5467132e-6)">
      <path
         d="m 58.604571,153.69801 c -0.6096,0 -4.0132,0.1016 -3.8354,0.7112 0.3302,1.1176 0.2032,0.2794 0.2032,9.9822 v 5.715 c 0,3.8862 -0.0762,3.4798 0.9144,3.4798 0.7874,0 0.7366,-0.127 0.7112,-2.1844 -0.0762,-6.223 -0.1524,-6.858 0.1524,-6.8834 5.0038,-0.4064 8.1026,-0.7112 8.1026,-6.2484 0,-3.2004 -3.0734,-4.5212 -6.2484,-4.572 z m -0.4572,1.4478 c 2.5654,0 5.207,1.016 5.207,3.302 0,3.2512 -2.1844,4.4958 -5.3848,4.4958 -1.7018,0 -1.397,0.1524 -1.397,-3.9624 0,-1.2446 -0.0254,-2.4892 0.127,-3.7084 0.2032,-0.1524 1.2192,-0.127 1.4478,-0.127 z"
         style="font-style:normal;font-variant:normal;font-weight:normal;font-stretch:normal;font-size:25.39999962px;font-family:Grundschrift;-inkscape-font-specification:Grundschrift;stroke-width:0.26458332px"
         id="path4615"
         inkscape:connector-curvature="0" />
      <path
         d="m 70.505661,173.05281 c 0,0.762 -0.9398,2.3622 -1.5748,3.7338 -1.6002,3.4544 -1.6002,3.5052 -0.6096,3.5052 0.5334,0 1.27,-1.4986 4.3434,-7.8232 4.0386,-8.3058 4.9784,-9.4234 3.5052,-9.4234 -0.3302,0 -0.6096,0.6604 -2.4892,4.191 -0.9906,1.8796 -1.8034,3.7338 -2.286,3.7338 -0.3556,0 -0.8382,-0.8382 -2.8194,-4.4196 -1.7018,-3.0734 -1.8796,-3.683 -2.4384,-3.683 -1.0922,0 -0.762,0.6096 1.8034,5.2578 2.032,3.683 2.5654,4.1402 2.5654,4.9276 z"
         style="font-style:normal;font-variant:normal;font-weight:normal;font-stretch:normal;font-size:25.39999962px;font-family:Grundschrift;-inkscape-font-specification:Grundschrift;stroke-width:0.26458332px"
         id="path4617"
         inkscape:connector-curvature="0" />
      <path
         d="m 83.408463,162.74041 c -2.5654,0 -5.3848,2.1082 -5.3848,5.9182 0,2.032 1.397,4.9022 4.3688,4.9022 2.159,0 4.0132,-1.6764 4.0132,-2.8194 0,-0.1778 -0.0508,-0.4064 -0.2794,-0.4064 -0.8128,0 -1.4986,1.8796 -3.7084,1.8796 -1.7526,0 -2.9972,-1.8542 -2.9972,-3.5052 0,-2.4384 1.778,-4.6482 4.0132,-4.6482 1.1176,0 0.9652,0.4064 1.2446,0.4064 0.3302,0 0.6604,-0.1778 0.6604,-0.5588 0,-1.1684 -1.0668,-1.1684 -1.9304,-1.1684 z"
         style="font-style:normal;font-variant:normal;font-weight:normal;font-stretch:normal;font-size:25.39999962px;font-family:Grundschrift;-inkscape-font-specification:Grundschrift;stroke-width:0.26458332px"
         id="path4619"
         inkscape:connector-curvature="0" />
      <path
         d="m 92.697718,163.19761 c -3.4544,0 -5.4102,3.2004 -5.4102,6.0706 0,2.3114 1.3462,4.445 3.6576,4.445 2.413,0 3.8354,-1.7018 4.2926,-1.7018 0.2794,0 0.4064,0.4572 0.4826,0.6604 0.3048,0.762 1.3462,0.9906 2.0828,0.9906 0.635,0 1.8034,-0.2032 1.8034,-1.0414 0,-0.6858 -0.9652,-0.508 -1.4478,-0.508 -2.5146,0 -1.9304,-3.6576 -1.9304,-5.3594 0,-2.3622 -1.0668,-3.556 -3.5306,-3.556 z m 1.8796,5.0546 c 0,1.524 0.1016,2.032 -1.0414,3.0988 -0.8636,0.7874 -2.0574,1.143 -3.2004,0.9144 -1.0414,-0.2032 -1.6002,-2.2098 -1.6002,-3.1496 0,-2.5908 1.9304,-4.5212 4.191,-4.5212 1.9304,0 1.7272,1.905 1.651,3.6576 z"
         style="font-style:normal;font-variant:normal;font-weight:normal;font-stretch:normal;font-size:25.39999962px;font-family:Grundschrift;-inkscape-font-specification:Grundschrift;stroke-width:0.26458332px"
         id="path4621"
         inkscape:connector-curvature="0" />
      <path
         d="m 101.82466,158.29541 c -0.5588,-0.5588 -1.5748,0.508 -1.0668,1.1938 0.5842,0.762 2.032,-0.4064 1.0668,-1.1938 z m -0.4826,4.7752 c -0.8128,0 -0.6858,1.143 -0.6858,4.8006 0,3.1242 -0.635,5.842 2.1336,5.842 1.524,0 2.8194,-1.1938 2.8194,-1.9558 0,-1.7272 -1.27,0.7366 -2.54,0.7366 -1.2954,0 -0.8636,-0.8636 -0.8636,-6.7056 0,-2.3876 -0.0254,-2.7178 -0.8636,-2.7178 z"
         style="font-style:normal;font-variant:normal;font-weight:normal;font-stretch:normal;font-size:25.39999962px;font-family:Grundschrift;-inkscape-font-specification:Grundschrift;stroke-width:0.26458332px"
         id="path4623"
         inkscape:connector-curvature="0" />
      <path
         d="m 107.31582,162.99441 c -0.127,1.6002 -0.0762,3.6068 -0.0762,5.2324 0,5.0038 -0.2032,5.3086 0.7874,5.2832 0.7366,-0.0254 0.6096,-0.7366 0.6096,-2.1844 0,-3.8354 1.651,-7.112 3.7846,-7.112 0.762,0 1.8288,0.7112 2.1082,0.4064 0.889,-0.9398 -0.6858,-1.651 -2.1082,-1.651 -2.032,0 -3.7338,2.413 -3.7592,1.8034 -0.1016,-1.7526 0.1778,-1.5748 -0.7366,-1.8542 z"
         style="font-style:normal;font-variant:normal;font-weight:normal;font-stretch:normal;font-size:25.39999962px;font-family:Grundschrift;-inkscape-font-specification:Grundschrift;stroke-width:0.26458332px"
         id="path4625"
         inkscape:connector-curvature="0" />
      <path
         d="m 121.20247,162.81661 c -3.7592,0 -5.5118,2.2352 -5.5626,5.842 -0.0508,2.7432 3.2004,5.1054 5.6896,5.1054 2.794,0 5.2324,-2.8448 5.2324,-5.6134 0,-3.0988 -2.3368,-5.334 -5.3594,-5.334 z m -0.2032,1.524 c 2.6162,0.0508 3.7846,1.905 3.9624,3.5052 0.254,2.413 -1.9558,4.445 -3.9878,4.445 -1.8288,0 -3.7846,-1.9304 -3.8354,-3.81 -0.0508,-1.8796 1.0668,-4.191 3.8608,-4.1402 z"
         style="font-style:normal;font-variant:normal;font-weight:normal;font-stretch:normal;font-size:25.39999962px;font-family:Grundschrift;-inkscape-font-specification:Grundschrift;stroke-width:0.26458332px"
         id="path4627"
         inkscape:connector-curvature="0" />
    </g>
    <path
       style="fill:#000000;stroke-width:0.23586629"
       d="m 143.41133,192.6216 c -4.7273,-0.0706 -4.82409,-0.10943 -3.14763,-1.26265 1.82448,-1.25505 1.94571,-3.02256 0.43475,-6.33871 -1.09251,-2.39777 -2.5767,-6.47276 -2.79136,-7.66389 -0.11707,-0.6496 -0.33475,-1.7118 -0.48373,-2.36044 -0.52324,-2.27795 -0.27833,-4.59102 0.80852,-7.63622 0.34771,-0.97425 0.34097,-1.09296 -0.12052,-2.12279 -1.07305,-2.39448 -1.13088,-2.69896 -0.88672,-4.6678 0.35943,-2.8982 2.08102,-5.20061 5.13912,-6.87293 1.18652,-0.64885 1.18652,-0.64885 0.40678,-1.93959 -1.58924,-2.63079 -1.96655,-2.45493 5.06329,-2.35999 4.09395,0.0553 4.04761,0.0234 2.975,2.04344 -0.94489,1.77944 -0.99717,1.97412 -0.5302,1.97412 1.45233,0 2.00336,1.88003 0.76514,2.6106 -0.85351,0.50358 -0.60245,2.08879 0.53912,3.40399 1.12218,1.29289 2.98218,4.78357 3.64472,6.84012 1.06841,3.31639 0.37063,10.9459 -1.42361,15.56574 -2.82085,7.26314 -2.99632,8.173 -1.84251,9.55403 0.45404,0.54344 0.82554,1.05766 0.82556,1.14267 3e-5,0.16673 -2.589,0.19166 -9.37572,0.0903 z m 7.78308,-1.05283 c -0.2916,-0.31039 -0.53018,-0.79931 -0.53018,-1.08648 0,-1.02933 -7.96351,-0.64832 -9.08374,0.4346 -1.01657,0.98271 -0.87481,1.00954 6.01696,1.13882 4.12714,0.0774 4.12714,0.0774 3.59696,-0.48694 z m -0.53018,-2.41151 c 0,-0.36585 1.51583,-5.04391 1.95195,-6.02396 0.99888,-2.24471 1.16582,-2.72088 1.46983,-4.19273 0.375,-1.81552 0.53642,-2.65927 0.7321,-3.82672 0.0761,-0.45405 0.1872,-0.90513 0.24689,-1.00243 0.13447,-0.21917 0.27351,-0.2133 -4.28284,-0.18112 -2.07562,0.0146 -4.99447,-0.0861 -6.48632,-0.22404 -7.1208,-0.6581 -6.74615,-0.83782 -5.88428,2.82279 0.25962,1.10267 0.51883,2.20455 0.57604,2.44861 0.0572,0.24406 0.53197,1.4415 1.05504,2.66098 0.52308,1.21947 0.95105,2.30679 0.95105,2.41626 0,0.10947 0.25199,0.76947 0.55997,1.46669 0.30799,0.6972 0.63562,1.81944 0.72808,2.49385 0.1681,1.22621 0.1681,1.22621 1.268,1.32076 2.31522,0.19902 7.11449,0.0784 7.11449,-0.17894 z m -3.48323,-2.0732 c -0.2445,-0.55823 -0.56762,-2.20436 -0.72922,-3.71489 -0.45441,-4.24761 -0.297,-3.9208 -1.97285,-4.09596 -1.41879,-0.14829 -2.3059,-0.62104 -2.3059,-1.22885 0,-0.16417 -0.30741,-0.36602 -0.68314,-0.44854 -2.43249,-0.53426 -1.16216,-2.75517 1.44062,-2.51865 0.25841,0.0234 0.49511,0.3762 0.65773,0.98015 0.19639,0.72934 0.37244,0.94756 0.77566,0.96151 1.15697,0.04 3.1175,0.61868 3.44886,1.01795 0.22099,0.26628 0.69753,6.46234 0.72305,9.40109 0.009,1.07319 -0.82528,0.85524 -1.35481,-0.35381 z m 0.81396,0.0147 c -0.0753,-0.18816 -0.13118,-0.13227 -0.1425,0.1425 -0.0102,0.24864 0.0456,0.38795 0.12387,0.30958 0.0784,-0.0784 0.0867,-0.28182 0.0186,-0.45208 z m -0.29781,-4.43724 c -0.1683,-2.01075 -0.31253,-3.82906 -0.32052,-4.04069 -0.0149,-0.39451 -1.47232,-0.89697 -3.01132,-1.03817 -1.07098,-0.0983 -1.24881,-0.26707 -1.24881,-1.18551 0,-1.07785 -0.75227,-1.12943 -2.34145,-0.16054 -0.25186,0.15355 0.87324,0.74991 1.42746,0.75663 0.49017,0.006 0.6473,0.14823 0.75427,0.68308 0.12232,0.61156 0.2519,0.69107 1.36756,0.83906 1.93652,0.25689 2.29782,0.62608 2.44175,2.49508 0.21971,2.85295 0.79042,5.80862 1.06256,5.50297 0.096,-0.10779 0.0368,-1.84114 -0.1315,-3.85191 z m -5.84502,-6.29617 c -0.26563,-0.26564 -0.16178,-0.54394 0.20297,-0.54394 0.19459,0 0.3538,0.0999 0.3538,0.22194 0,0.29742 -0.36833,0.51044 -0.55677,0.322 z m 6.60845,-3.04556 c 0.5088,-0.13649 0.5088,-0.13649 -0.059,-0.97316 -0.31228,-0.46016 -0.56778,-1.08577 -0.56778,-1.39024 0,-0.67497 -1.1002,-1.19865 -2.98315,-1.41996 -1.26567,-0.14876 -1.26567,-0.14876 -0.91026,0.70187 0.19548,0.46784 0.35542,1.06415 0.35542,1.32513 0,0.51841 1.47054,1.43537 2.71246,1.69136 0.38918,0.0802 0.76067,0.15836 0.82553,0.17367 0.0649,0.0153 0.3469,-0.0336 0.62674,-0.10867 z m 1.02431,0.025 c 0,-0.0649 -0.053,-0.11793 -0.11793,-0.11793 -0.0649,0 -0.11793,0.053 -0.11793,0.11793 0,0.0649 0.053,0.11793 0.11793,0.11793 0.0649,0 0.11793,-0.053 0.11793,-0.11793 z m -5.13008,-0.58708 c -0.5978,-0.36448 -0.76657,-0.62735 -0.76657,-1.19396 0,-1.47445 -0.91043,-2.11075 -3.0201,-2.11075 -1.02441,0 -1.04832,0.016 -0.66233,0.44248 0.22025,0.24336 0.46366,0.83199 0.54091,1.30807 0.18847,1.16142 1.68977,1.8952 4.08498,1.99658 0.56232,0.0238 0.55412,0.004 -0.17689,-0.44242 z m 8.66809,0.26216 c 0,-0.11384 -0.14742,-0.32933 -0.3276,-0.47886 -0.18018,-0.14953 -0.44621,-0.74293 -0.59118,-1.31866 -0.32574,-1.29365 -0.85208,-1.60789 -2.77399,-1.65611 -1.58603,-0.0398 -1.5762,-0.0862 -0.4698,2.22023 0.50075,1.04389 4.16257,2.12892 4.16257,1.2334 z m 2.00485,-1.55368 c 0,-1.63626 0,-1.63626 -1.29725,-1.64783 -1.43388,-0.0127 -1.61919,0.45791 -0.80236,2.03795 1.00374,1.94158 2.09961,1.73796 2.09961,-0.39012 z m -14.81982,0.86115 c -0.21647,-0.23919 -0.39357,-0.65359 -0.39357,-0.92088 0,-1.56285 -1.76682,-2.12616 -1.97206,-0.62876 -0.26264,1.91612 -0.30559,1.85283 1.30432,1.92201 1.40049,0.0602 1.44017,0.0463 1.06131,-0.37237 z m 13.99429,-3.23986 c 0,-0.0713 -0.15702,-0.43328 -0.34893,-0.80441 -0.19192,-0.37112 -0.39717,-1.02923 -0.45612,-1.46245 -0.20793,-1.52801 -0.43582,-2.32081 -0.66714,-2.32081 -0.12863,0 -0.1683,0.23881 -0.0882,0.5307 0.0801,0.29188 0.26314,1.27367 0.40659,2.18175 0.14345,0.90809 0.30878,1.73067 0.3674,1.82798 0.12221,0.20285 0.78633,0.24276 0.78633,0.0472 z m 0.78236,-0.90224 c -0.0237,-0.56756 -0.32126,-1.65551 -0.66112,-2.41765 -0.33985,-0.76214 -0.5551,-1.12037 -0.47833,-0.79605 0.0768,0.32432 0.19734,0.96115 0.26794,1.41519 0.0706,0.45405 0.21571,1.09089 0.3225,1.4152 0.1068,0.32433 0.25385,0.77541 0.32681,1.00243 0.21003,0.65361 0.26862,0.49034 0.2222,-0.61912 z m -12.50504,-1.68052 c 0.13266,-1.86888 0.13061,-1.87791 -0.21442,-0.94347 -0.64802,1.75498 -0.84995,3.00736 -0.51799,3.21253 0.44275,0.27363 0.58271,-0.15998 0.73241,-2.26906 z m 1.29225,0.88402 c 0.0361,-0.87539 0.12411,-1.8834 0.19559,-2.24002 0.10119,-0.5048 0.0532,-0.61894 -0.21668,-0.51538 -0.2304,0.0884 -0.40287,0.6579 -0.51427,1.6982 -0.0922,0.86084 -0.2604,1.80921 -0.37381,2.10747 -0.17685,0.46519 -0.13154,0.54224 0.31869,0.54183 0.48418,-4.5e-4 0.52995,-0.12385 0.59048,-1.5921 z m 1.28379,-0.23539 c 0.0562,-1.00538 0.147,-1.95002 0.20188,-2.0992 0.0549,-0.14919 -0.006,-0.30379 -0.13609,-0.34355 -0.23654,-0.0725 -0.79388,2.40593 -0.81452,3.62209 -0.0284,1.6762 0.64883,0.60941 0.74873,-1.17934 z m 1.46327,1.29727 c 0.36792,-1.78797 0.30384,-3.95076 -0.11705,-3.95076 -0.25753,0 -0.41577,0.16299 -0.40074,0.41277 0.0136,0.22702 -0.0551,1.23534 -0.15271,2.24072 -0.17553,1.8071 0.35455,2.8327 0.6705,1.29727 z m 1.70439,-1.65107 c 0.26669,-2.46084 0.27683,-2.39321 -0.3298,-2.20068 -0.37799,0.11997 -0.44628,0.3711 -0.43878,1.61363 0.005,0.80935 -0.069,1.76343 -0.16426,2.12019 -0.14298,0.53563 -0.0974,0.64863 0.26162,0.64863 0.37408,0 0.46778,-0.30458 0.67122,-2.18177 z m 1.50012,0.7076 c 0.002,-0.81079 0.0702,-1.88298 0.15269,-2.38265 0.13024,-0.78838 0.0944,-0.89752 -0.27149,-0.82553 -0.2497,0.0491 -0.44422,0.32336 -0.47714,0.67262 -0.0306,0.32432 -0.12828,1.35918 -0.21713,2.2997 -0.15322,1.6218 -0.13648,1.71003 0.32446,1.71003 0.43865,0 0.48627,-0.14364 0.48861,-1.47417 z m 1.36596,-0.76604 c -0.0588,-1.84701 -0.3971,-3.26461 -0.43638,-1.82848 -0.0263,0.96061 -0.22966,3.04711 -0.34487,3.53799 -0.0985,0.41963 -0.0223,0.5307 0.36399,0.5307 0.46488,0 0.4851,-0.10859 0.41726,-2.24021 z m 1.47323,1.68052 c -0.11703,-0.30782 -0.28768,-1.31978 -0.37922,-2.24877 -0.2648,-2.68732 -0.49502,-1.13812 -0.35601,2.39569 0.01,0.24832 0.20185,0.41277 0.48214,0.41277 0.39283,0 0.43252,-0.0878 0.25309,-0.55969 z m -12.68923,-1.51411 c 0.82517,-2.33656 0.81434,-2.47132 -0.0974,-1.2127 -1.00247,1.38386 -1.52319,3.05089 -0.95272,3.05002 0.28798,-4.5e-4 0.58486,-0.51988 1.05012,-1.83732 z m 1.31924,-0.0185 c 0.2798,-1.02098 0.50873,-1.92317 0.50873,-2.00486 0,-0.32681 -0.42515,-0.12221 -0.54905,0.26424 -0.0727,0.22702 -0.35053,1.03954 -0.61719,1.80561 -0.5716,1.64212 -0.5856,1.79135 -0.16803,1.79135 0.19522,0 0.51204,-0.7124 0.82554,-1.85634 z m -1.48464,-4.38063 c 0.0218,-4.49467 1.8873,-6.07577 7.77212,-6.58716 5.98719,-0.52028 3.89302,-2.82584 -2.19213,-2.41339 -5.29015,0.35857 -8.87853,5.87975 -6.98018,10.73996 0.92239,2.36154 1.38309,1.78923 1.40019,-1.73941 z m 1.75751,1.28378 c 0,-0.12973 -0.0468,-0.23587 -0.10402,-0.23587 -0.0572,0 -0.16961,0.10614 -0.24978,0.23587 -0.0801,0.12972 -0.0333,0.23586 0.10401,0.23586 0.13738,0 0.24979,-0.10614 0.24979,-0.23586 z m 2.60514,-0.53071 c -0.27911,-0.42161 -0.67851,-1.10696 -0.88757,-1.52302 -0.3801,-0.75646 -0.3801,-0.75646 -1.01622,0.0967 -0.94568,1.26831 -0.41294,2.18923 1.26772,2.19142 1.14353,0.002 1.14353,0.002 0.63607,-0.76508 z m 2.60206,0.25995 c -0.25959,-0.27863 -0.66175,-0.96814 -0.89369,-1.53224 -0.38151,-0.92787 -2.1907,-1.65575 -2.1907,-0.88136 0,0.95405 1.76458,2.92022 2.62079,2.92022 0.93559,0 0.93559,0 0.4636,-0.50662 z m 4.36967,-0.96755 c -0.69291,-1.25773 -0.9188,-1.48501 -1.53857,-1.54807 -0.85716,-0.0872 -0.86584,-0.0509 -0.26001,1.08574 0.71443,1.34042 1.02922,1.65124 1.78548,1.76295 0.38304,0.0566 0.72541,0.11877 0.76083,0.13821 0.0354,0.0194 -0.30106,-0.62803 -0.74773,-1.43883 z m -1.93289,0.64864 c -0.2125,-0.32431 -0.46494,-0.58967 -0.56098,-0.58967 -0.096,0 -0.27295,-0.34495 -0.39313,-0.76657 -0.20736,-0.72747 -1.97253,-1.3703 -1.97253,-0.71834 0,1.12096 1.46386,2.66425 2.52711,2.66425 0.78407,0 0.785,-0.002 0.39953,-0.58967 z m 4.00145,-0.5307 c -0.94362,-1.65312 -2.21077,-2.69414 -2.21077,-1.81625 0,0.79705 1.75788,2.93662 2.41274,2.93662 0.3978,0 0.37946,-0.10176 -0.20197,-1.12037 z m -9.90092,-4.0416 c 0.44017,-1.54161 0.46242,-1.44708 -0.27971,-1.18837 -1.67528,0.584 -2.62972,2.32839 -2.63574,4.8172 -0.003,1.16013 2.40312,-1.83451 2.91545,-3.62883 z m 7.83121,1.09982 c -0.21831,-0.29548 -0.67515,-1.14755 -1.01521,-1.89348 -0.51227,-1.1237 -0.72286,-1.36032 -1.22829,-1.38012 -0.8187,-0.0321 -2.11712,0.0456 -2.7164,0.16265 -0.26848,0.0524 -0.82068,0.15825 -1.22711,0.23521 -0.56546,0.10706 -0.71283,0.23991 -0.62761,0.56578 0.0612,0.23423 -0.14417,0.95982 -0.4565,1.61242 -0.56785,1.18654 -0.56785,1.18654 3.5501,1.21067 4.11794,0.0242 4.11794,0.0242 3.72102,-0.51313 z m -1.61936,-6.94863 c 0.10007,-0.30409 -4.3351,-0.55309 -5.08042,-0.28523 -0.54073,0.19434 0.5769,0.39772 2.4257,0.44141 0.77541,0.0184 1.46095,0.0844 1.52342,0.14691 0.20502,0.20502 1.03748,-0.018 1.1313,-0.30309 z m 0.53442,-1.07737 c 2.3e-4,-0.0973 -0.0792,-0.17777 -0.17648,-0.17884 -0.0973,-8.9e-4 -1.11332,-0.10922 -2.25785,-0.24035 -1.57425,-0.18036 -2.32086,-0.16625 -3.06626,0.058 -0.98532,0.29638 -0.98532,0.29638 0.78368,0.41774 2.5446,0.17456 4.71642,0.14853 4.71691,-0.0565 z m 0.57458,-1.14473 c 0.0785,-0.0783 -0.57571,-0.21034 -1.45395,-0.29351 -0.87825,-0.0832 -1.75602,-0.16853 -1.95061,-0.18969 -1.51695,-0.16499 -4.5143,0.0658 -4.29411,0.33066 0.25486,0.30656 7.40191,0.44816 7.69867,0.15254 z"
       id="path4631-6"
       inkscape:connector-curvature="0"
       inkscape:transform-center-x="43.845238"
       inkscape:transform-center-y="-19.654762" />
  </g>
</svg>
